<?xml version="1.0" encoding="utf-8"?>
<!-- Generator: Adobe Illustrator 24.0.2, SVG Export Plug-In . SVG Version: 6.00 Build 0)  -->
<svg version="1.1"
	 id="svg425343" xmlns:cc="http://creativecommons.org/ns#" xmlns:dc="http://purl.org/dc/elements/1.1/" xmlns:rdf="http://www.w3.org/1999/02/22-rdf-syntax-ns#" xmlns:svg="http://www.w3.org/2000/svg"
	 xmlns="http://www.w3.org/2000/svg" xmlns:xlink="http://www.w3.org/1999/xlink" x="0px" y="0px" viewBox="0 0 1024 768"
	 style="enable-background:new 0 0 1024 768;" xml:space="preserve">
<style type="text/css">
	.st0{clip-path:url(#SVGID_3_);}
	.st1{fill:#1DB954;}
	.st2{display:none;fill:#1DB954;}
</style>
<g id="logo-group">
	<g id="logo-center" transform="translate(0 0)">
		<g>
			<defs>
				<polygon id="SVGID_1_" points="1,1 2,1 1,2 				"/>
			</defs>
			<defs>
				<polygon id="SVGID_2_" points="-1,-1 -2,-1 -1,-2 				"/>
			</defs>
			<clipPath id="SVGID_3_">
				<use xlink:href="#SVGID_1_"  style="overflow:visible;"/>
			</clipPath>
			<clipPath id="SVGID_4_" class="st0">
				<use xlink:href="#SVGID_2_"  style="overflow:visible;"/>
			</clipPath>
		</g>
		<g id="slogan" transform="translate(0 0)">
		</g>
		<g id="title" transform="translate(0 0)">
			<path id="path425352" class="st1" d="M113,357.8H86.8v29.7h20.7v10.2H86.8v39.7H73.7v-90.1H113L113,357.8z"/>
			<path id="path425354" class="st1" d="M164.5,426.9h22.3v10.5h-35.3v-90.1h13V426.9z"/>
			<path id="path425356" class="st1" d="M226,347.3h13v90.1h-13V347.3z"/>
			<path id="path425358" class="st1" d="M311.6,391.3l19.3,46.1h-14.4l-12.1-34.3l-12.1,34.3h-14l19-46.1l-17.7-44.1H294l10.4,32.4
				l10.5-32.4H329L311.6,391.3z"/>
			<path id="path425360" class="st2" d="M486.9-53.5h6.3v62h-6.3V-53.5z"/>
			<path id="path425362" class="st1" d="M619.4,375.5h-13.2v-13.8c0-1.7-0.3-2.8-0.9-3.3c-0.5-0.6-1.6-0.9-3.3-0.9h-7.3
				c-1.7,0-2.9,0.3-3.5,0.9c-0.6,0.5-0.9,1.6-0.9,3.3v61.5c0,1.7,0.3,2.9,0.9,3.5c0.6,0.5,1.7,0.7,3.5,0.7h7.3
				c1.7,0,2.8-0.2,3.3-0.7c0.6-0.6,0.9-1.7,0.9-3.5v-13.7h13.2v15.3c0,8.5-4.5,12.8-13.5,12.8h-15.3c-8.9,0-13.4-4.3-13.4-12.8V360
				c0-8.4,4.5-12.7,13.4-12.7h15.3c9,0,13.5,4.2,13.5,12.7V375.5z"/>
			<path id="path425364" class="st1" d="M675.2,426.9h22.3v10.5h-35.3v-90.1h13L675.2,426.9z"/>
			<path id="path425366" class="st1" d="M748.3,347.3h16c8.9,0,13.4,4.2,13.4,12.7v64.8c0,8.4-4.5,12.7-13.4,12.7h-16
				c-9,0-13.5-4.2-13.5-12.7V360C734.8,351.5,739.3,347.3,748.3,347.3z M764.8,422.7V362c0-1.7-0.3-2.8-0.9-3.3
				c-0.6-0.6-1.7-0.9-3.5-0.9h-8.4c-1.7,0-2.9,0.3-3.5,0.9c-0.5,0.5-0.7,1.6-0.7,3.3v60.8c0,1.7,0.2,2.9,0.7,3.5
				c0.6,0.5,1.7,0.7,3.5,0.7h8.4c1.7,0,2.9-0.2,3.5-0.7C764.5,425.6,764.8,424.5,764.8,422.7z"/>
			<path id="path425368" class="st1" d="M854.2,347.3h12v90.1H853l-19-65.1v65.1h-12v-90.1h13.7l18.4,63.2L854.2,347.3z"/>
			<path id="path425370" class="st1" d="M924.2,426.9h26.1v10.5h-39.2v-90.1h38.2v10.5h-25.1v27.8H945v10.5h-20.7V426.9z"/>
		</g>
		
			<image style="display:none;overflow:visible;enable-background:new    ;" width="200" height="200" id="icon" xlink:href="B54224DF.png"  transform="matrix(0.8157 0 0 0.8157 367.3735 311.424)">
		</image>
	</g>
</g>
<g transform="translate(-0.045588,156.004838) scale(0.100000,-0.100000)">
	<path class="st1" d="M3846.7-1925c-2.4-7.3-4.9-20.3-4.9-29.3c0-51.2-55.3-105.7-117.9-117.1c-17.9-3.3-35-9.8-38.2-14.6
		c-8.1-11.4-8.1-551.3,0-562.7c3.3-4.9,20.3-11.4,38.2-14.6c62.6-11.4,117.9-65.9,117.9-117.1c0-45.5-45.5-42.3,651.4-42.3h641.6
		l4.1,22c3.3,13,7.3,31.7,8.9,42.3c10.6,48.8,52,83.8,113,95.1c17.9,3.3,35,9.8,38.2,14.6c3.3,4.9,6.5,131.7,6.5,281.4
		s-3.3,276.5-6.5,281.4c-3.3,4.9-20.3,11.4-38.2,14.6c-62.6,11.4-117.9,65.9-117.9,117.1c0,45.5,45.5,42.3-650.6,42.3
		C3915.8-1912,3851.6-1913.6,3846.7-1925z M5105.5-1999c20.3-48.8,66.7-95.1,111.4-109.8l35.8-12.2v-246.4v-246.4l-35.8-12.2
		c-44.7-14.6-91.1-61-111.4-109.8l-15.5-38.2h-597.7h-597.7l-15.5,38.2c-20.3,48.8-66.7,95.1-111.4,109.8l-35.8,12.2v246.4v246.4
		l35.8,12.2c44.7,14.6,91.9,61.8,110.6,110.6l14.6,37.4h598.5h598.5L5105.5-1999z"/>
	<path class="st1" d="M3955.7-2095.8c-4.9-11.4-8.1-25.2-8.1-31.7c0-16.3-47.2-52.9-68.3-52.9c-35,0-37.4-10.6-37.4-187
		c0-177.3,2.4-187,37.4-187c26.8,0,61.8-34.2,72.4-69.9l8.9-31.7h531.8h531.8l7.3,30.1c8.1,35,46.4,71.6,74,71.6
		c35,0,37.4,10.6,37.4,187s-2.4,187-37.4,187c-27.6,0-68.3,38.2-68.3,64.2c0,12.2-4.1,26-9.8,31.7c-7.3,7.3-137.4,9.8-536.7,9.8
		h-504.3C3972.8-2074.6,3960.6-2083,3955.7-2095.8L3955.7-2095.8z M4992.5-2141.3c8.1-26.8,44.7-63.4,75.6-76.4l26-11.4v-138.2
		v-138.2l-26.8-10.6c-29.3-13-78.9-65.1-78.9-82.9c0-10.6-65.9-12.2-495.2-12.2H3998l-9.8,23.6c-11.4,29.3-45.5,61.8-74.8,73.2
		l-22.8,8.9v138.2v138.2l22.8,8.9c29.3,11.4,63.4,43.9,74.8,73.2l9.8,23.6h495.2h494.4L4992.5-2141.3z"/>
	<path class="st1" d="M4040.2-2273.9c-12.2-31.7,0.8-36.6,96.8-36.6c73.2,0,95.1,2.4,103.3,12.2c8.1,9.8,8.1,14.6,0,24.4
		c-8.1,9.8-30.1,12.2-103.3,12.2C4062.2-2261.7,4043.5-2264.1,4040.2-2273.9z"/>
	<path class="st1" d="M4365.5-2273.9c-3.3-6.5-3.3-17.9,0-24.4c4.1-10.6,44.7-12.2,300.1-12.2c253.7,0,297.6,1.6,306.6,12.2
		c8.1,9.8,8.1,14.6,0,24.4c-8.9,10.6-52.9,12.2-306.6,12.2C4410.2-2261.7,4369.6-2263.3,4365.5-2273.9z"/>
	<path class="st1" d="M4040.2-2436.5c-3.3-6.5-3.3-17.9,0-24.4c4.1-10.6,36.6-12.2,250.5-10.6l226.1,2.2
		c11.3,0.1,20.3,9.3,20.3,20.5l0,0v0c0,11.3-9.1,20.4-20.3,20.5l-226.1,2.2C4076.8-2424.3,4044.3-2425.9,4040.2-2436.5z"/>
	<path class="st1" d="M4663.1-2436.5c-8.1-9.8-8.1-14.6,0-24.4s35.8-12.2,154.5-12.2c118.7,0,146.4,2.4,154.5,12.2s8.1,14.6,0,24.4
		s-35.8,12.2-154.5,12.2C4698.9-2424.3,4671.3-2426.7,4663.1-2436.5z"/>
</g>
</svg>
