<?xml version="1.0" encoding="utf-8"?>
<!-- Generator: Adobe Illustrator 24.0.2, SVG Export Plug-In . SVG Version: 6.00 Build 0)  -->
<svg version="1.1"
	 id="svg175156" xmlns:cc="http://creativecommons.org/ns#" xmlns:dc="http://purl.org/dc/elements/1.1/" xmlns:rdf="http://www.w3.org/1999/02/22-rdf-syntax-ns#" xmlns:svg="http://www.w3.org/2000/svg"
	 xmlns="http://www.w3.org/2000/svg" xmlns:xlink="http://www.w3.org/1999/xlink" x="0px" y="0px" viewBox="0 0 1024 768"
	 style="enable-background:new 0 0 1024 768;" xml:space="preserve">
<style type="text/css">
	.st0{clip-path:url(#SVGID_3_);}
	.st1{fill:#1DB954;}
</style>
<g id="logo-group">
	<g id="logo-center" transform="translate(0 0)">
		<g>
			<defs>
				<polygon id="SVGID_1_" points="1,1 2,1 1,2 				"/>
			</defs>
			<defs>
				<polygon id="SVGID_2_" points="-1,-1 -2,-1 -1,-2 				"/>
			</defs>
			<clipPath id="SVGID_3_">
				<use xlink:href="#SVGID_1_"  style="overflow:visible;"/>
			</clipPath>
			<clipPath id="SVGID_4_" class="st0">
				<use xlink:href="#SVGID_2_"  style="overflow:visible;"/>
			</clipPath>
		</g>
		<g id="slogan" transform="translate(0 0)">
		</g>
		<g id="title" transform="translate(0 0)">
			<path id="path175165" class="st1" d="M207.1,461.9h-26.2v29.7h20.7v10.2h-20.7v39.7h-13.1v-90.1h39.3V461.9z"/>
			<path id="path175167" class="st1" d="M258.6,531h22.3v10.5h-35.3v-90.1h13L258.6,531z"/>
			<path id="path175169" class="st1" d="M320.1,451.4h13v90.1h-13V451.4z"/>
			<path id="path175171" class="st1" d="M405.7,495.4l19.3,46.1h-14.4l-12.1-34.3l-12.1,34.3h-14l19-46.1l-17.7-44.1h14.4l10.4,32.4
				l10.5-32.4h14.1L405.7,495.4z"/>
			<path id="path175173" class="st1" d="M525.3,479.6h-13.2v-13.8c0-1.7-0.3-2.8-0.9-3.3c-0.5-0.6-1.6-0.9-3.3-0.9h-7.3
				c-1.7,0-2.9,0.3-3.5,0.9c-0.6,0.5-0.9,1.6-0.9,3.3v61.5c0,1.7,0.3,2.9,0.9,3.5c0.6,0.5,1.7,0.7,3.5,0.7h7.3
				c1.7,0,2.8-0.2,3.3-0.7c0.6-0.6,0.9-1.7,0.9-3.5v-13.7h13.2v15.3c0,8.5-4.5,12.8-13.5,12.8h-15.3c-8.9,0-13.4-4.3-13.4-12.8V464
				c0-8.4,4.5-12.7,13.4-12.7h15.3c9,0,13.5,4.2,13.5,12.7V479.6z"/>
			<path id="path175175" class="st1" d="M581.1,531h22.3v10.5h-35.3v-90.1h13L581.1,531z"/>
			<path id="path175177" class="st1" d="M654.2,451.4h16c8.9,0,13.4,4.2,13.4,12.7v64.8c0,8.4-4.5,12.7-13.4,12.7h-16
				c-9,0-13.5-4.2-13.5-12.7V464C640.7,455.6,645.2,451.4,654.2,451.4z M670.7,526.8V466c0-1.7-0.3-2.8-0.9-3.3
				c-0.6-0.6-1.7-0.9-3.5-0.9H658c-1.7,0-2.9,0.3-3.5,0.9c-0.5,0.5-0.7,1.6-0.7,3.3v60.8c0,1.7,0.2,2.9,0.7,3.5
				c0.6,0.5,1.7,0.7,3.5,0.7h8.4c1.7,0,2.9-0.2,3.5-0.7C670.4,529.7,670.7,528.5,670.7,526.8z"/>
			<path id="path175179" class="st1" d="M760.1,451.4h12v90.1h-13.1l-19-65.1v65.1h-12v-90.1h13.7l18.4,63.2V451.4z"/>
			<path id="path175181" class="st1" d="M830.1,531h26.1v10.5H817v-90.1h38.2v10.5h-25.1v27.8h20.7v10.5h-20.7V531z"/>
		</g>
	</g>
</g>
<g transform="translate(-0.045588,156.004838) scale(0.100000,-0.100000)">
	<path class="st1" d="M4224.2-1217.4c-3.4-10.1-6.7-28-6.7-40.4c0-70.6-76.2-145.7-162.5-161.4c-24.7-4.5-48.2-13.5-52.7-20.2
		c-11.2-15.7-11.2-760,0-775.7c4.5-6.7,28-15.7,52.7-20.2c86.3-15.7,162.5-90.8,162.5-161.4c0-62.8-62.8-58.3,897.9-58.3h884.4
		l5.6,30.3c4.5,17.9,10.1,43.7,12.3,58.3c14.6,67.3,71.7,115.5,155.8,131.2c24.7,4.5,48.2,13.5,52.7,20.2c4.5,6.7,9,181.6,9,387.8
		s-4.5,381.1-9,387.8c-4.5,6.7-28,15.7-52.7,20.2c-86.3,15.7-162.5,90.8-162.5,161.4c0,62.8,62.8,58.3-896.8,58.3
		C4319.5-1199.4,4230.9-1201.7,4224.2-1217.4z M5959.4-1319.4c28-67.3,91.9-131.2,153.6-151.3l49.3-16.8v-339.6v-339.6l-49.3-16.8
		c-61.7-20.2-125.5-84.1-153.6-151.3l-21.3-52.7h-823.9h-823.9L4269-2335c-28,67.3-91.9,131.2-153.6,151.3l-49.3,16.8v339.6v339.6
		l49.3,16.8c61.7,20.2,126.7,85.2,152.4,152.4l20.2,51.6h825h825L5959.4-1319.4z"/>
	<path class="st1" d="M4374.4-1452.8c-6.7-15.7-11.2-34.7-11.2-43.7c0-22.4-65-72.9-94.2-72.9c-48.2,0-51.6-14.6-51.6-257.8
		c0-244.4,3.4-257.8,51.6-257.8c37,0,85.2-47.1,99.8-96.4l12.3-43.7h733.1h733.1l10.1,41.5c11.2,48.2,63.9,98.6,102,98.6
		c48.2,0,51.6,14.6,51.6,257.8s-3.4,257.8-51.6,257.8c-38.1,0-94.2,52.7-94.2,88.6c0,16.8-5.6,35.9-13.5,43.7
		c-10.1,10.1-189.4,13.5-739.8,13.5h-695.2C4398-1423.6,4381.1-1435.2,4374.4-1452.8L4374.4-1452.8z M5803.6-1515.5
		c11.2-37,61.7-87.4,104.2-105.4l35.9-15.7v-190.6v-190.6l-37-14.6c-40.4-17.9-108.7-89.7-108.7-114.3c0-14.6-90.8-16.8-682.7-16.8
		h-682.7l-13.5,32.5c-15.7,40.4-62.8,85.2-103.1,100.9l-31.4,12.3v190.6v190.6l31.4,12.3c40.4,15.7,87.4,60.5,103.1,100.9l13.5,32.5
		h682.7h681.5L5803.6-1515.5z"/>
	<path class="st1" d="M4491-1698.3c-16.8-43.7,1.1-50.4,133.4-50.4c100.9,0,131.2,3.4,142.4,16.8s11.2,20.2,0,33.6
		s-41.5,16.8-142.4,16.8C4521.2-1681.4,4495.4-1684.8,4491-1698.3z"/>
	<path class="st1" d="M4939.3-1698.3c-4.5-9-4.5-24.7,0-33.6c5.6-14.6,61.7-16.8,413.6-16.8c349.7,0,410.3,2.2,422.6,16.8
		c11.2,13.5,11.2,20.2,0,33.6c-12.3,14.6-72.9,16.8-422.6,16.8C5001-1681.4,4944.9-1683.7,4939.3-1698.3z"/>
	<path class="st1" d="M4491-1922.4c-4.5-9-4.5-24.7,0-33.6c5.6-14.6,50.4-16.8,345.3-14.6l311.6,3.1c15.5,0.2,28,12.8,28,28.3l0,0
		l0,0c0,15.5-12.5,28.1-28,28.3l-311.6,3.1C4541.4-1905.6,4496.6-1907.9,4491-1922.4z"/>
	<path class="st1" d="M5349.6-1922.4c-11.2-13.5-11.2-20.2,0-33.6s49.3-16.8,213-16.8s201.8,3.4,213,16.8
		c11.2,13.5,11.2,20.2,0,33.6c-11.2,13.5-49.3,16.8-213,16.8S5360.8-1909,5349.6-1922.4z"/>
</g>
</svg>
